<svg width="100" height="100" viewBox="0 0 100 100" fill="none" xmlns="http://www.w3.org/2000/svg">
<path fill-rule="evenodd" clip-rule="evenodd" d="M50 0L0 50L50 100L100 50L50 0ZM62.2254 60.7475C68.291 60.7475 72.1249 55.5878 72.1249 47.4008C72.1249 36.2639 63.5954 28.5852 51.2873 28.5852C38.4821 28.5852 29.6985 37.2251 29.6985 49.8094C29.6985 62.703 38.3053 71.0116 51.7514 71.0226C54.2483 71.0226 56.668 70.7464 58.6788 70.2713C59.4632 70.0835 60.0157 69.3764 60.0157 68.5698C60.0157 67.476 59.0213 66.6584 57.9385 66.8573C56.2702 67.1777 54.0937 67.3655 51.9281 67.3655C40.8686 67.3655 33.7643 60.5817 33.7643 49.953C33.7643 39.5564 40.9459 32.2091 51.0222 32.2091C61.2089 32.2091 68.1032 38.3631 68.1032 47.5665C68.1032 53.3339 66.1587 57.0462 63.0982 57.0462C61.3304 57.0462 60.3471 55.9745 60.3471 54.1957V39.9099H55.9388V42.9814H55.4968C54.4804 40.7385 52.1712 39.3685 49.4533 39.3685C44.161 39.3685 40.5371 43.6664 40.5371 49.8425C40.5371 56.2728 44.1389 60.5928 49.5306 60.5928C52.5579 60.5928 54.8118 59.1896 55.9056 56.6264H56.3476C56.7564 59.0902 59.1207 60.7475 62.2254 60.7475ZM50.3482 56.5048C47.2215 56.5048 45.299 54.0299 45.299 49.942C45.299 45.843 47.1883 43.4344 50.4034 43.4344C53.6407 43.4344 55.7178 45.9203 55.7178 49.942C55.7178 53.9637 53.6407 56.5048 50.3482 56.5048Z" fill="white"/>
</svg>
